# xmcd
#
# Track frame offsets: 
#        150
#        13128
#        26578
#        35668
#        50213
#        63248
#        73085
#        84083
#        96078
#        108090
#        117928
#        130053
#        145728
#        157940
#        167335
#        176930
#        186638
#        197958
#        206290
#        218533
#        227513
#        236610
#        245495
#        249718
#
# Disc length: 3471 seconds
#
# Revision: 2
# Processed by: cddbd v1.5PL3 Copyright (c) Steve Scherf et al.
# Submitted via: ExactAudioCopy v0.95a5
#
DISCID=4e0d8d18
DTITLE=Warren Smith - Uranium Rock
DYEAR=1900
DGENRE=
TTITLE0=Rock 'N' Roll Ruby
TTITLE1=I'd Rather Be Safe Than Sorry
TTITLE2=Ubangi Stomp
TTITLE3=Black Jack David
TTITLE4=The Darkest Cloud
TTITLE5=So Long I'm Gone
TTITLE6=Miss Frogie
TTITLE7=Red Cadillac and a Black Moustache
TTITLE8=I Fell In Love
TTITLE9=Got Love If You Want It
TTITLE10=Goodbye Mr. Love
TTITLE11=Sweet Sweet Girl To Me
TTITLE12=Dear John
TTITLE13=Golden Rocket
TTITLE14=Uranium Rock
TTITLE15=(Tell Me) Who
TTITLE16=Who Took My Baby
TTITLE17=I Couldn't Take the Chance
TTITLE18=Do I Love You
TTITLE19=Stop the World
TTITLE20=Tonight Will Be the Last Night
TTITLE21=I Like Your Kind of Love
TTITLE22=Old Lonesome Feeling
TTITLE23=My Hanging Day
EXTD=
EXTT0=
EXTT1=
EXTT2=
EXTT3=
EXTT4=
EXTT5=
EXTT6=
EXTT7=
EXTT8=
EXTT9=
EXTT10=
EXTT11=
EXTT12=
EXTT13=
EXTT14=
EXTT15=
EXTT16=
EXTT17=
EXTT18=
EXTT19=
EXTT20=
EXTT21=
EXTT22=
EXTT23=
PLAYORDER=
